<mxfile host="app.diagrams.net" modified="2023-03-08T10:09:40.131Z" agent="5.0 (Windows)" etag="i9dJb_o_OyULNAXkAcBo" version="21.0.2" type="github">
  <diagram id="C5RBs43oDa-KdzZeNtuy" name="Page-1">
    <mxGraphModel dx="1422" dy="776" grid="1" gridSize="10" guides="1" tooltips="1" connect="1" arrows="1" fold="1" page="1" pageScale="1" pageWidth="827" pageHeight="1169" math="0" shadow="0">
      <root>
        <mxCell id="WIyWlLk6GJQsqaUBKTNV-0" />
        <mxCell id="WIyWlLk6GJQsqaUBKTNV-1" parent="WIyWlLk6GJQsqaUBKTNV-0" />
        <mxCell id="moZCizeLRDtYiHkfuJdZ-2" value="" style="edgeStyle=orthogonalEdgeStyle;rounded=0;orthogonalLoop=1;jettySize=auto;html=1;" edge="1" parent="WIyWlLk6GJQsqaUBKTNV-1" source="moZCizeLRDtYiHkfuJdZ-0" target="moZCizeLRDtYiHkfuJdZ-1">
          <mxGeometry relative="1" as="geometry" />
        </mxCell>
        <mxCell id="moZCizeLRDtYiHkfuJdZ-0" value="&lt;div&gt;&lt;h4&gt;&lt;font data-font-src=&quot;https://fonts.googleapis.com/css?family=Poppins&quot; face=&quot;Poppins&quot;&gt;Start&lt;/font&gt;&lt;/h4&gt;&lt;/div&gt;" style="ellipse;whiteSpace=wrap;html=1;" vertex="1" parent="WIyWlLk6GJQsqaUBKTNV-1">
          <mxGeometry x="340" y="90" width="120" height="80" as="geometry" />
        </mxCell>
        <mxCell id="moZCizeLRDtYiHkfuJdZ-21" value="" style="edgeStyle=orthogonalEdgeStyle;rounded=0;orthogonalLoop=1;jettySize=auto;html=1;" edge="1" parent="WIyWlLk6GJQsqaUBKTNV-1" source="moZCizeLRDtYiHkfuJdZ-1" target="moZCizeLRDtYiHkfuJdZ-20">
          <mxGeometry relative="1" as="geometry" />
        </mxCell>
        <mxCell id="moZCizeLRDtYiHkfuJdZ-1" value="&lt;div&gt;Podaj a i b:&lt;/div&gt;&lt;div align=&quot;left&quot;&gt;a = data urodzin&lt;/div&gt;&lt;div align=&quot;left&quot;&gt;b = dzisiejsza data&lt;br&gt;&lt;/div&gt;" style="rounded=0;whiteSpace=wrap;html=1;fontFamily=Poppins;fontSource=https%3A%2F%2Ffonts.googleapis.com%2Fcss%3Ffamily%3DPoppins;" vertex="1" parent="WIyWlLk6GJQsqaUBKTNV-1">
          <mxGeometry x="320" y="220" width="160" height="60" as="geometry" />
        </mxCell>
        <mxCell id="moZCizeLRDtYiHkfuJdZ-24" value="&lt;font data-font-src=&quot;https://fonts.googleapis.com/css?family=Poppins&quot; face=&quot;Poppins&quot;&gt;Tak&lt;/font&gt;" style="edgeStyle=orthogonalEdgeStyle;rounded=0;orthogonalLoop=1;jettySize=auto;html=1;verticalAlign=bottom;" edge="1" parent="WIyWlLk6GJQsqaUBKTNV-1" source="moZCizeLRDtYiHkfuJdZ-20" target="moZCizeLRDtYiHkfuJdZ-22">
          <mxGeometry relative="1" as="geometry" />
        </mxCell>
        <mxCell id="moZCizeLRDtYiHkfuJdZ-25" value="&lt;div&gt;Nie&lt;/div&gt;" style="edgeStyle=orthogonalEdgeStyle;rounded=0;orthogonalLoop=1;jettySize=auto;html=1;verticalAlign=bottom;fontFamily=Poppins;fontSource=https%3A%2F%2Ffonts.googleapis.com%2Fcss%3Ffamily%3DPoppins;" edge="1" parent="WIyWlLk6GJQsqaUBKTNV-1" source="moZCizeLRDtYiHkfuJdZ-20" target="moZCizeLRDtYiHkfuJdZ-23">
          <mxGeometry relative="1" as="geometry" />
        </mxCell>
        <mxCell id="moZCizeLRDtYiHkfuJdZ-20" value="&lt;font data-font-src=&quot;https://fonts.googleapis.com/css?family=Poppins&quot; face=&quot;Poppins&quot;&gt;b - a &amp;gt; 18&lt;br&gt;&lt;/font&gt;" style="rhombus;whiteSpace=wrap;html=1;" vertex="1" parent="WIyWlLk6GJQsqaUBKTNV-1">
          <mxGeometry x="335" y="320" width="130" height="130" as="geometry" />
        </mxCell>
        <mxCell id="moZCizeLRDtYiHkfuJdZ-22" value="" style="rounded=0;whiteSpace=wrap;html=1;" vertex="1" parent="WIyWlLk6GJQsqaUBKTNV-1">
          <mxGeometry x="500" y="355" width="120" height="60" as="geometry" />
        </mxCell>
        <mxCell id="moZCizeLRDtYiHkfuJdZ-23" value="" style="rounded=0;whiteSpace=wrap;html=1;" vertex="1" parent="WIyWlLk6GJQsqaUBKTNV-1">
          <mxGeometry x="180" y="355" width="120" height="60" as="geometry" />
        </mxCell>
      </root>
    </mxGraphModel>
  </diagram>
</mxfile>
